<svg width="90" height="90" viewBox="0 0 90 90" fill="none" xmlns="http://www.w3.org/2000/svg">
<circle cx="45" cy="45" r="45" fill="#1ACBAA"/>
<path d="M60.0067 37.1473C60.3817 37.5223 60.5692 37.9777 60.5692 38.5134C60.5692 39.0491 60.3817 39.5045 60.0067 39.8795L45.4621 54.4241L42.7299 57.1562C42.3549 57.5312 41.8996 57.7188 41.3638 57.7188C40.8281 57.7188 40.3728 57.5312 39.9978 57.1562L37.2656 54.4241L29.9933 47.1518C29.6183 46.7768 29.4308 46.3214 29.4308 45.7857C29.4308 45.25 29.6183 44.7946 29.9933 44.4196L32.7254 41.6875C33.1004 41.3125 33.5558 41.125 34.0915 41.125C34.6272 41.125 35.0826 41.3125 35.4576 41.6875L41.3638 47.6138L54.5424 34.4152C54.9174 34.0402 55.3728 33.8527 55.9085 33.8527C56.4442 33.8527 56.8996 34.0402 57.2746 34.4152L60.0067 37.1473Z" fill="white"/>
</svg>
