<svg width="90" height="90" viewBox="0 0 90 90" fill="none" xmlns="http://www.w3.org/2000/svg">
<circle cx="45" cy="45" r="44.5" fill="#DC1D00" stroke="#DC1D00"/>
<path d="M41.2857 54.7857V40.6429C41.2857 40.4554 41.2254 40.3013 41.1049 40.1808C40.9844 40.0603 40.8304 40 40.6429 40H39.3571C39.1696 40 39.0156 40.0603 38.8951 40.1808C38.7746 40.3013 38.7143 40.4554 38.7143 40.6429V54.7857C38.7143 54.9732 38.7746 55.1272 38.8951 55.2478C39.0156 55.3683 39.1696 55.4286 39.3571 55.4286H40.6429C40.8304 55.4286 40.9844 55.3683 41.1049 55.2478C41.2254 55.1272 41.2857 54.9732 41.2857 54.7857ZM46.4286 54.7857V40.6429C46.4286 40.4554 46.3683 40.3013 46.2478 40.1808C46.1272 40.0603 45.9732 40 45.7857 40H44.5C44.3125 40 44.1585 40.0603 44.0379 40.1808C43.9174 40.3013 43.8571 40.4554 43.8571 40.6429V54.7857C43.8571 54.9732 43.9174 55.1272 44.0379 55.2478C44.1585 55.3683 44.3125 55.4286 44.5 55.4286H45.7857C45.9732 55.4286 46.1272 55.3683 46.2478 55.2478C46.3683 55.1272 46.4286 54.9732 46.4286 54.7857ZM51.5714 54.7857V40.6429C51.5714 40.4554 51.5112 40.3013 51.3906 40.1808C51.2701 40.0603 51.1161 40 50.9286 40H49.6429C49.4554 40 49.3013 40.0603 49.1808 40.1808C49.0603 40.3013 49 40.4554 49 40.6429V54.7857C49 54.9732 49.0603 55.1272 49.1808 55.2478C49.3013 55.3683 49.4554 55.4286 49.6429 55.4286H50.9286C51.1161 55.4286 51.2701 55.3683 51.3906 55.2478C51.5112 55.1272 51.5714 54.9732 51.5714 54.7857ZM40.6429 34.8571H49.6429L48.6786 32.5067C48.5848 32.3862 48.471 32.3125 48.3371 32.2857H41.9688C41.8348 32.3125 41.721 32.3862 41.6272 32.5067L40.6429 34.8571ZM59.2857 35.5V36.7857C59.2857 36.9732 59.2254 37.1272 59.1049 37.2478C58.9844 37.3683 58.8304 37.4286 58.6429 37.4286H56.7143V56.4732C56.7143 57.5848 56.3996 58.5424 55.7701 59.346C55.1406 60.1629 54.3839 60.5714 53.5 60.5714H36.7857C35.9018 60.5714 35.1451 60.1763 34.5156 59.3862C33.8862 58.6094 33.5714 57.6652 33.5714 56.5536V37.4286H31.6429C31.4554 37.4286 31.3013 37.3683 31.1808 37.2478C31.0603 37.1272 31 36.9732 31 36.7857V35.5C31 35.3125 31.0603 35.1585 31.1808 35.0379C31.3013 34.9174 31.4554 34.8571 31.6429 34.8571H37.8504L39.2567 31.5022C39.4576 31.0067 39.8192 30.5848 40.3415 30.2366C40.8638 29.8884 41.3929 29.7143 41.9286 29.7143H48.3571C48.8929 29.7143 49.4219 29.8884 49.9442 30.2366C50.4665 30.5848 50.8281 31.0067 51.029 31.5022L52.4353 34.8571H58.6429C58.8304 34.8571 58.9844 34.9174 59.1049 35.0379C59.2254 35.1585 59.2857 35.3125 59.2857 35.5Z" fill="white"/>
</svg>
