<svg width="90" height="90" viewBox="0 0 90 90" fill="none" xmlns="http://www.w3.org/2000/svg">
<circle cx="45" cy="45" r="44.5" fill="#002395" stroke="#002395"/>
<path d="M37.2924 58L39.1205 56.1719L34.3996 51.4509L32.5714 53.279V55.4286H35.1429V58H37.2924ZM47.7991 39.3571C47.7991 39.0625 47.6518 38.9152 47.3571 38.9152C47.2232 38.9152 47.1094 38.9621 47.0156 39.0558L36.1272 49.9442C36.0335 50.0379 35.9866 50.1518 35.9866 50.2857C35.9866 50.5804 36.1339 50.7277 36.4286 50.7277C36.5625 50.7277 36.6763 50.6808 36.7701 50.5871L47.6585 39.6987C47.7522 39.6049 47.7991 39.4911 47.7991 39.3571ZM46.7143 35.5L55.0714 43.8571L38.3571 60.5714H30V52.2143L46.7143 35.5ZM60.4353 37.4286C60.4353 38.1384 60.1875 38.7411 59.692 39.2366L56.3571 42.5714L48 34.2143L51.3348 30.8996C51.817 30.3906 52.4196 30.1362 53.1429 30.1362C53.8527 30.1362 54.4621 30.3906 54.971 30.8996L59.692 35.6004C60.1875 36.1228 60.4353 36.7321 60.4353 37.4286Z" fill="white"/>
</svg>
