<svg width="25" height="25" viewBox="0 0 25 25" fill="none" xmlns="http://www.w3.org/2000/svg">
<rect width="25" height="25" fill="white"/>
<circle cx="12.5" cy="12.4999" r="10.4167" fill="#C13584"/>
<path d="M12.5 7.37612C14.1688 7.37612 14.3665 7.3825 15.0255 7.41257C15.6349 7.44035 15.9658 7.54217 16.1861 7.62776C16.4778 7.74114 16.686 7.87657 16.9047 8.09527C17.1234 8.31399 17.2589 8.52219 17.3722 8.81392C17.4578 9.03415 17.5596 9.36508 17.5874 9.97445C17.6175 10.6335 17.6239 10.8312 17.6239 12.5C17.6239 14.1688 17.6175 14.3665 17.5874 15.0255C17.5596 15.6349 17.4578 15.9658 17.3722 16.186C17.2589 16.4778 17.1234 16.686 16.9047 16.9047C16.686 17.1234 16.4778 17.2588 16.1861 17.3722C15.9658 17.4578 15.6349 17.5596 15.0255 17.5874C14.3666 17.6175 14.1689 17.6238 12.5 17.6238C10.8311 17.6238 10.6334 17.6175 9.97446 17.5874C9.36509 17.5596 9.03416 17.4578 8.81393 17.3722C8.5222 17.2588 8.31399 17.1234 8.0953 16.9047C7.8766 16.686 7.74115 16.4778 7.62777 16.186C7.54217 15.9658 7.44036 15.6349 7.41257 15.0255C7.3825 14.3665 7.37612 14.1688 7.37612 12.5C7.37612 10.8312 7.3825 10.6335 7.41257 9.97445C7.44036 9.36508 7.54217 9.03415 7.62777 8.81392C7.74115 8.52219 7.87658 8.31399 8.0953 8.09529C8.31399 7.87657 8.5222 7.74114 8.81393 7.62776C9.03416 7.54217 9.36509 7.44035 9.97446 7.41257C10.6335 7.3825 10.8312 7.37612 12.5 7.37612ZM12.5 6.25C10.8026 6.25 10.5898 6.25719 9.92313 6.28761C9.25789 6.31795 8.80356 6.42362 8.40601 6.5781C7.99502 6.73783 7.64647 6.95153 7.29899 7.29899C6.95154 7.64647 6.73783 7.99501 6.57813 8.40601C6.42362 8.80355 6.31795 9.25788 6.28761 9.92312C6.25719 10.5897 6.25 10.8026 6.25 12.5C6.25 14.1974 6.25719 14.4102 6.28761 15.0768C6.31795 15.7421 6.42362 16.1964 6.57813 16.594C6.73783 17.0049 6.95154 17.3535 7.29899 17.701C7.64647 18.0484 7.99502 18.2621 8.40601 18.4218C8.80356 18.5763 9.25789 18.682 9.92313 18.7123C10.5898 18.7428 10.8026 18.75 12.5 18.75C14.1974 18.75 14.4102 18.7428 15.0769 18.7123C15.7421 18.682 16.1964 18.5763 16.594 18.4218C17.005 18.2621 17.3535 18.0484 17.701 17.701C18.0485 17.3535 18.2622 17.0049 18.4219 16.594C18.5764 16.1964 18.682 15.7421 18.7124 15.0768C18.7428 14.4102 18.75 14.1974 18.75 12.5C18.75 10.8026 18.7428 10.5897 18.7124 9.92312C18.682 9.25788 18.5764 8.80355 18.4219 8.40601C18.2622 7.99501 18.0485 7.64647 17.701 7.29899C17.3535 6.95153 17.005 6.73783 16.594 6.5781C16.1964 6.42362 15.7421 6.31795 15.0769 6.28761C14.4102 6.25719 14.1974 6.25 12.5 6.25Z" fill="white"/>
<path d="M12.5029 9.29346C10.7304 9.29346 9.29346 10.7304 9.29346 12.5029C9.29346 14.2754 10.7304 15.7124 12.5029 15.7124C14.2755 15.7124 15.7124 14.2754 15.7124 12.5029C15.7124 10.7304 14.2755 9.29346 12.5029 9.29346ZM12.5029 14.5862C11.3523 14.5862 10.4196 13.6535 10.4196 12.5029C10.4196 11.3523 11.3523 10.4196 12.5029 10.4196C13.6535 10.4196 14.5862 11.3523 14.5862 12.5029C14.5862 13.6535 13.6535 14.5862 12.5029 14.5862Z" fill="white"/>
<path d="M16.589 9.16456C16.589 9.57876 16.2532 9.91455 15.8389 9.91455C15.4248 9.91455 15.089 9.57876 15.089 9.16456C15.089 8.75035 15.4248 8.41455 15.8389 8.41455C16.2532 8.41455 16.589 8.75035 16.589 9.16456Z" fill="white"/>
</svg>
