<svg width="25" height="25" viewBox="0 0 25 25" fill="none" xmlns="http://www.w3.org/2000/svg">
<rect width="25" height="25" fill="white"/>
<circle cx="12.5" cy="12.4999" r="10.4167" fill="#BD081C"/>
<path fill-rule="evenodd" clip-rule="evenodd" d="M12.9439 6.25C9.53248 6.25 7.8125 8.69579 7.8125 10.7353C7.8125 11.9701 8.28009 13.069 9.28286 13.478C9.44732 13.5452 9.59459 13.4803 9.64225 13.2983C9.67545 13.1721 9.75397 12.8541 9.78874 12.7217C9.83679 12.5416 9.81804 12.4787 9.68522 12.3217C9.39615 11.9807 9.21138 11.5392 9.21138 10.9138C9.21138 9.09893 10.5692 7.47466 12.7467 7.47466C14.6748 7.47466 15.7343 8.6532 15.7343 10.2263C15.7343 12.2967 14.8178 14.044 13.458 14.044C12.7068 14.044 12.1447 13.4225 12.3248 12.6608C12.5404 11.7514 12.9588 10.7693 12.9588 10.113C12.9588 9.52551 12.6431 9.03525 11.9904 9.03525C11.2224 9.03525 10.6056 9.82942 10.6056 10.8935C10.6056 11.5713 10.8345 12.0299 10.8345 12.0299C10.8345 12.0299 10.0485 15.3593 9.91101 15.9425C9.63678 17.1039 9.86999 18.5274 9.88952 18.6711C9.90124 18.7563 10.0106 18.7766 10.0602 18.7118C10.1309 18.6196 11.0454 17.4902 11.3564 16.3621C11.4443 16.0429 11.8615 14.3886 11.8615 14.3886C12.1107 14.8644 12.84 15.2835 13.6154 15.2835C15.9237 15.2835 17.4894 13.1791 17.4894 10.3623C17.4894 8.23328 15.6858 6.25 12.9439 6.25Z" fill="white"/>
</svg>
