<svg width="25" height="25" viewBox="0 0 25 25" fill="none" xmlns="http://www.w3.org/2000/svg">
<rect width="25" height="25" fill="white"/>
<circle cx="12.5" cy="12.4999" r="10.4167" fill="#1DA1F2"/>
<path fill-rule="evenodd" clip-rule="evenodd" d="M18.75 8.49417C18.2904 8.69832 17.7959 8.83581 17.2772 8.89789C17.8067 8.58041 18.2134 8.07794 18.4046 7.47923C17.9096 7.77338 17.3601 7.98629 16.7764 8.10169C16.3085 7.60339 15.6415 7.29175 14.9044 7.29175C13.4883 7.29175 12.34 8.44 12.34 9.85616C12.34 10.057 12.3629 10.2528 12.4067 10.4407C10.2751 10.334 8.38569 9.31286 7.12078 7.7613C6.89996 8.14002 6.77372 8.58042 6.77372 9.05038C6.77372 9.93991 7.22577 10.7249 7.91447 11.1848C7.49367 11.1715 7.09869 11.0561 6.75247 10.864V10.8961C6.75247 12.1389 7.63699 13.1751 8.80941 13.4113C8.59443 13.4697 8.36778 13.5013 8.13404 13.5013C7.96864 13.5013 7.80781 13.4851 7.65116 13.4551C7.97738 14.4738 8.92482 15.2154 10.0468 15.2362C9.16939 15.9237 8.06363 16.3341 6.86204 16.3341C6.65456 16.3341 6.4504 16.322 6.25 16.2978C7.38492 17.0253 8.73275 17.4502 10.181 17.4502C14.8978 17.4502 17.4772 13.5426 17.4772 10.1541C17.4772 10.0428 17.4751 9.93199 17.4697 9.82241C17.9713 9.45994 18.4063 9.0083 18.75 8.49417Z" fill="white"/>
</svg>
