<svg width="25" height="25" viewBox="0 0 25 25" fill="none" xmlns="http://www.w3.org/2000/svg">
<rect width="25" height="25" fill="white"/>
<circle cx="12.5" cy="12.4999" r="10.4167" fill="#FF0000"/>
<path fill-rule="evenodd" clip-rule="evenodd" d="M18.3857 8.53024C18.5935 8.73811 18.7433 8.9968 18.8201 9.28056C19.2622 11.0603 19.1601 13.8711 18.8287 15.7194C18.7519 16.0032 18.6021 16.2619 18.3942 16.4698C18.1864 16.6776 17.9277 16.8274 17.6439 16.9042C16.6051 17.1875 12.4241 17.1875 12.4241 17.1875C12.4241 17.1875 8.24317 17.1875 7.20437 16.9042C6.92061 16.8274 6.66191 16.6776 6.45405 16.4698C6.24618 16.2619 6.0964 16.0032 6.01961 15.7194C5.5749 13.9475 5.69681 11.135 6.01103 9.28915C6.08781 9.00539 6.2376 8.74669 6.44546 8.53883C6.65333 8.33096 6.91202 8.18118 7.19578 8.1044C8.23459 7.82108 12.4156 7.8125 12.4156 7.8125C12.4156 7.8125 16.5965 7.8125 17.6353 8.09581C17.9191 8.1726 18.1778 8.32238 18.3857 8.53024ZM14.5533 12.5L11.0849 14.5089V10.4911L14.5533 12.5Z" fill="white"/>
</svg>
